<svg width="838" height="769" viewBox="0 0 838 769" fill="none" xmlns="http://www.w3.org/2000/svg">
<path d="M730 493.5C730 543.513 689.513 584 639.5 584C589.487 584 549 543.513 549 493.5C549 443.487 589.487 403 639.5 403C689.513 403 730 443.487 730 493.5Z" fill="black"/>
<path d="M253.416 477.833C186.941 477.833 142.625 424.167 142.625 363.5C142.625 302.833 188.107 249.167 253.416 249.167C296.566 249.167 336.217 277.167 351.378 313.333H468C445.842 215.333 358.375 143 253.416 143C132.129 143 33 242.167 33 363.5C33 484.833 132.129 584 253.416 584C358.375 584 445.842 510.5 468 412.5H351.378C336.217 449.833 296.566 477.833 253.416 477.833Z" fill="black"/>
</svg>
